<?xml version="1.0" encoding="utf-8"?>
<svg version="1.0" width="100%" height="100%" viewBox="0 0 500.000000 500.000000" preserveAspectRatio="xMidYMid meet" xmlns="http://www.w3.org/2000/svg">
  <g transform="matrix(0.198624, 0, 0, -0.198624, -241.395744, 751.460838)" fill="#000000" stroke="none" style="">
    <path d="M2796 3600 c-37 -55 -98 -167 -136 -248 -75 -159 -170 -343 -191 -368 -7 -9 -58 -38 -113 -66 -108 -54 -223 -126 -245 -152 -7 -9 -18 -16 -23 -16 -27 0 48 61 230 190 l107 75 100 175 c55 97 126 216 157 265 59 94 68 121 21 64 -50 -60 -214 -242 -292 -323 -74 -76 -81 -81 -226 -146 -143 -64 -187 -86 -234 -117 -309 -204 -485 -421 -572 -703 -20 -64 -23 -97 -23 -230 0 -164 7 -202 60 -340 22 -55 119 -230 128 -230 2 0 -5 30 -15 66 -26 92 -34 223 -20 324 10 76 52 241 80 312 21 54 113 208 170 284 61 82 171 196 171 178 0 -5 -4 -14 -9 -19 -21 -22 -90 -175 -105 -232 -20 -78 -20 -208 0 -287 53 -206 236 -410 445 -496 170 -71 243 -81 619 -84 173 -2 295 -2 270 0 -196 18 -440 79 -564 141 -97 49 -147 84 -233 166 -130 124 -211 253 -275 440 -30 86 -32 102 -32 231 l-1 139 85 59 c105 72 296 154 393 169 72 11 186 6 217 -11 14 -8 16 0 12 78 -2 48 1 98 6 112 10 23 11 21 11 -20 2 -88 45 -206 107 -292 33 -47 40 -73 12 -50 -24 19 -121 42 -178 42 -119 0 -278 -69 -362 -158 -108 -113 -153 -254 -128 -399 6 -40 15 -75 20 -78 4 -2 10 20 13 49 14 137 149 291 327 373 69 31 112 45 105 32 -4 -5 -12 -9 -19 -9 -18 0 -125 -71 -160 -106 -91 -91 -147 -237 -145 -380 2 -121 17 -156 33 -77 9 39 71 97 135 126 62 29 211 30 291 3 86 -30 186 -81 243 -124 33 -24 68 -41 95 -46 24 -3 72 -20 107 -35 l64 -30 27 32 c23 27 28 29 46 18 18 -11 25 -8 62 27 22 22 51 42 64 44 13 2 32 17 43 35 l21 32 -31 13 c-29 13 -82 69 -193 207 -34 42 -38 112 -9 150 17 22 17 29 6 61 -17 49 -55 123 -61 118 -2 -3 7 -37 20 -77 l24 -73 -21 -35 c-20 -35 -21 -36 -29 -12 -18 49 -89 108 -157 130 -48 16 -76 33 -104 62 -20 22 -36 42 -34 43 1 1 45 -18 97 -42 60 -29 113 -63 144 -92 l48 -47 -6 35 c-7 41 -85 225 -123 290 -46 78 -155 233 -201 284 -67 76 -95 131 -109 215 -16 100 -16 287 1 381 8 41 12 76 11 78 -1 1 -33 -42 -69 -98z m228 -1099 c10 -19 41 -42 96 -70 l81 -42 39 -85 c21 -46 52 -96 67 -111 47 -46 198 -232 192 -237 -2 -1 -30 -12 -61 -25 l-57 -22 -47 20 c-25 12 -66 21 -90 21 -39 0 -48 5 -86 46 -167 180 -424 273 -593 216 -33 -11 -61 -19 -63 -18 -8 8 143 119 194 143 108 50 239 41 324 -22 18 -13 58 -30 89 -36 31 -7 66 -18 79 -26 12 -7 22 -11 22 -8 0 11 -115 131 -148 155 -25 18 -40 40 -53 78 -19 56 -9 71 15 23z"/>
    <path d="M3151 2324 c13 -14 25 -20 27 -14 7 20 -7 40 -29 40 l-22 0 24 -26z"/>
    <path d="M2915 2250 c3 -4 35 -20 72 -34 38 -15 89 -38 116 -52 26 -13 47 -20 47 -15 0 17 -77 79 -111 89 -44 13 -130 22 -124 12z"/>
    <path d="M3265 2035 c32 -26 75 -46 75 -35 0 12 -37 36 -70 44 -24 7 -25 7 -5 -9z"/>
    <path d="M3139 3534 c-24 -25 -96 -93 -160 -150 l-117 -105 10 -42 c11 -51 19 -64 120 -190 111 -140 192 -263 243 -370 40 -85 43 -89 44 -56 2 91 -51 282 -103 370 l-34 57 10 178 c5 99 15 217 23 264 8 46 13 86 11 87 -1 1 -22 -18 -47 -43z"/>
    <path d="M2464 2796 c-204 -64 -346 -252 -343 -455 l1 -66 13 60 c16 75 63 179 99 222 33 39 156 133 211 160 67 35 146 55 240 62 90 7 90 7 50 19 -52 15 -218 14 -271 -2z"/>
    <path d="M1930 1370 c-160 -5 -168 -6 -96 -12 95 -10 1454 -8 1546 1 166 16 -986 26 -1450 11z"/>
  </g>
</svg>